<svg class="svg-icon" style="width: 2em;height: 2em;vertical-align: middle;fill: currentColor;overflow: hidden;" viewBox="0 0 1024 1024" version="1.1" xmlns="http://www.w3.org/2000/svg"><path d="M858.880533 376.73257a98.193165 98.193165 0 0 0-23.647106-14.418967A97.904786 97.904786 0 0 0 749.728952 216.537847a100.932769 100.932769 0 0 0-22.926157 2.595414 97.904786 97.904786 0 0 0-195.232814 10.381656V548.174088a100.932769 100.932769 0 0 1-39.36378 0V230.956814a98.048976 98.048976 0 0 0-195.232813-12.688691 98.048976 98.048976 0 0 0-114.342409 130.92422 83.630009 83.630009 0 0 0 7.065294 14.418967 98.048976 98.048976 0 0 0-24.800623 165.385552 90.118544 90.118544 0 0 0 23.502916 14.418967 98.193165 98.193165 0 0 0 85.504475 145.919946 94.444234 94.444234 0 0 0 23.070347-2.739603 97.760596 97.760596 0 0 0 97.183838 86.513802h235.317541a98.193165 98.193165 0 0 0 97.183838-85.360285 97.904786 97.904786 0 0 0 114.342409-130.924221 88.965027 88.965027 0 0 0-7.065294-14.418967 97.760596 97.760596 0 0 0 24.944813-165.241362z m-18.888847 112.035374a57.675868 57.675868 0 0 1-44.266229 20.619123 20.186554 20.186554 0 0 0-11.823553 36.479986 58.973575 58.973575 0 0 1 19.609795 25.233193 57.675868 57.675868 0 0 1-0.865138 44.266229 56.522351 56.522351 0 0 1-31.865917 30.42402 57.675868 57.675868 0 0 1-54.359505-6.488535 20.042364 20.042364 0 0 0-31.00078 21.340071 59.838713 59.838713 0 0 1 1.730277 14.418967 57.675868 57.675868 0 0 1-57.675869 57.675868H394.013036a57.675868 57.675868 0 0 1-55.513023-72.094835 20.186554 20.186554 0 0 0-31.289159-21.628451 57.675868 57.675868 0 0 1-70.364559-91.272061 20.042364 20.042364 0 0 0-11.823553-35.614848 57.675868 57.675868 0 0 1-41.382435-94.732614 57.675868 57.675868 0 0 1 43.977849-20.619123 20.186554 20.186554 0 0 0 11.967743-36.335796 57.675868 57.675868 0 0 1 67.336576-93.434907 20.186554 20.186554 0 0 0 31.289159-21.62845 61.4248 61.4248 0 0 1-1.874466-14.418967 57.675868 57.675868 0 0 1 115.351736 0v333.078138a20.186554 20.186554 0 0 0 14.418967 19.321416 148.51536 148.51536 0 0 0 90.983682 0 20.186554 20.186554 0 0 0 14.418967-19.321416V230.956814a57.675868 57.675868 0 0 1 57.675868-57.675868 57.675868 57.675868 0 0 1 57.675868 57.675868 65.75049 65.75049 0 0 1-1.730276 14.418967 20.042364 20.042364 0 0 0 31.144969 21.484261 57.675868 57.675868 0 0 1 70.220369 91.41625 20.186554 20.186554 0 0 0 11.967743 35.614849 57.675868 57.675868 0 0 1 34.461331 13.409639 57.675868 57.675868 0 0 1 7.065294 81.467164z"  /><path d="M586.362056 772.677405H436.981558a20.330744 20.330744 0 0 1-20.186554-20.186554c0-22.637778-12.111932-68.201714-24.079675-112.179564-13.26545-49.168678-25.665761-95.453562-25.665761-123.714737a48.736109 48.736109 0 0 1 17.014381-43.256901c17.44695-11.967743 38.210263-3.893121 62.434127 5.623397a180.958036 180.958036 0 0 0 65.173731 16.437623 180.092898 180.092898 0 0 0 65.31792-16.437623c24.079675-9.516518 44.987177-17.59114 62.434128-5.623397a48.736109 48.736109 0 0 1 17.014381 43.256901c0 27.972796-12.256122 73.392542-25.377382 121.407703-11.967743 44.410418-24.368054 90.551113-24.368054 114.486598a20.330744 20.330744 0 0 1-20.330744 20.186554z m-130.780031-40.373108h112.179564A920.939424 920.939424 0 0 1 592.273833 627.478407c11.823553-43.256901 23.935485-88.244078 23.935485-110.881857a48.30354 48.30354 0 0 0 0-7.930431c-5.911776 1.441897-16.005053 5.335018-23.935485 8.363a216.284505 216.284505 0 0 1-80.025267 19.177227 216.284505 216.284505 0 0 1-80.025267-19.177227 241.373508 241.373508 0 0 0-23.791296-8.363 48.30354 48.30354 0 0 0 0 7.930431c0 22.926158 12.400312 68.778473 24.368054 113.188892a917.478872 917.478872 0 0 1 22.781968 102.518855z"  /><path d="M657.303374 857.172552H366.761188a20.186554 20.186554 0 0 1 0-40.373108h290.542186a20.186554 20.186554 0 1 1 0 40.373108zM657.303374 940.225802H366.761188a20.186554 20.186554 0 1 1 0-40.228918h290.542186a20.186554 20.186554 0 1 1 0 40.228918zM598.618178 1024h-173.027604a20.186554 20.186554 0 1 1 0-40.373108h173.027604a20.186554 20.186554 0 0 1 0 40.373108zM167.202685 726.248331a20.186554 20.186554 0 0 0-28.837934 28.837934 20.042364 20.042364 0 0 0 14.418967 6.344345 20.186554 20.186554 0 0 0 14.418967-33.884572zM428.906936 0.253341h-1.009328a20.042364 20.042364 0 0 0 2.883794 39.940539h4.46988A20.186554 20.186554 0 1 0 428.906936 0.253341zM278.084541 49.422019h-1.009328A19.898174 19.898174 0 0 0 260.637591 72.348176a20.042364 20.042364 0 0 0 19.753985 17.158571h4.758259a20.186554 20.186554 0 1 0-6.632725-39.796349zM58.772053 588.979765a20.186554 20.186554 0 0 0-11.535174 26.09833 7.786242 7.786242 0 0 1 0 1.586087 19.321416 19.321416 0 0 0 18.023709 11.967742 22.205209 22.205209 0 0 0 7.930432-1.586086 20.763313 20.763313 0 0 0 10.814225-26.819279A19.898174 19.898174 0 0 0 58.772053 588.979765zM55.74407 452.143768A20.042364 20.042364 0 0 0 35.557516 432.822352 20.330744 20.330744 0 0 0 15.515152 452.576337v0.865138a19.609795 19.609795 0 0 0 20.042364 19.609795 20.619123 20.619123 0 0 0 20.186554-20.907502zM152.639528 185.248688a20.330744 20.330744 0 0 0 14.418967-6.344345l1.009328-1.009328a20.186554 20.186554 0 1 0-28.837934-27.540227l-0.865138 0.720948a20.042364 20.042364 0 0 0 0 28.837934 19.609795 19.609795 0 0 0 14.274777 5.335018zM73.911968 277.962646a20.186554 20.186554 0 0 0-26.09833 11.535174v0.720948A20.186554 20.186554 0 0 0 58.772053 316.605478a21.484261 21.484261 0 0 0 7.786242 1.586086 20.186554 20.186554 0 0 0 18.600467-12.400311 6.200156 6.200156 0 0 1 0-1.730277 20.186554 20.186554 0 0 0-11.246794-26.09833zM594.148298 0.253341H592.273833a19.609795 19.609795 0 0 0-22.349399 16.870192 20.907502 20.907502 0 0 0 17.591139 23.070347h3.027983a20.330744 20.330744 0 0 0 20.042365-17.158571A20.330744 20.330744 0 0 0 594.148298 0.253341zM964.85994 589.412334a20.330744 20.330744 0 0 0-26.386709 10.814225s0 1.586086-0.720949 1.730276a20.186554 20.186554 0 0 0 11.535174 26.098331 17.879519 17.879519 0 0 0 7.209484 1.441896 19.898174 19.898174 0 0 0 18.744657-12.97707v-0.720948a20.186554 20.186554 0 0 0-10.381657-26.38671zM987.786098 431.236266A20.763313 20.763313 0 0 0 967.166975 451.999578v1.874466a20.186554 20.186554 0 1 0 40.373108 0v-3.172173a19.609795 19.609795 0 0 0-19.753985-19.465605zM938.329041 304.493545a20.330744 20.330744 0 0 0 18.600468 12.256122 21.628451 21.628451 0 0 0 7.930431-1.586086 20.042364 20.042364 0 0 0 10.381657-26.530899v-1.009328A20.042364 20.042364 0 1 0 938.329041 303.051649zM855.70836 178.183394a20.042364 20.042364 0 1 0 28.837934-28.837934 20.186554 20.186554 0 0 0-28.837934 27.540227 6.776915 6.776915 0 0 0 0 1.297707zM855.70836 726.969279l-1.153517 1.009328a20.330744 20.330744 0 0 0 14.418967 34.028762 20.042364 20.042364 0 0 0 14.418967-6.344345l0.865138-0.865138a20.186554 20.186554 0 1 0-28.837934-27.828607zM751.603418 51.440674L750.88247 50.575536a19.609795 19.609795 0 0 0-26.38671 9.228139A20.907502 20.907502 0 0 0 733.002951 86.767143a21.91683 21.91683 0 0 0 9.372328 2.307035 20.186554 20.186554 0 0 0 9.228139-38.066073z"  /></svg>