<svg class="svg-icon" style="width: 1em; height: 1em;vertical-align: middle;fill: currentColor;overflow: hidden;" viewBox="0 0 1024 1024" version="1.1" xmlns="http://www.w3.org/2000/svg"><path d="M282.453333 558.08a38.4 38.4 0 0 0-23.04 23.04 42.666667 42.666667 0 0 0 55.466667 55.466667 49.066667 49.066667 0 0 0 14.08-8.96 49.066667 49.066667 0 0 0 8.96-14.08A35.84 35.84 0 0 0 341.333333 597.333333a44.8 44.8 0 0 0-12.373333-30.293333 42.666667 42.666667 0 0 0-46.506667-8.96z m560.64-170.666667L785.066667 215.466667a128 128 0 0 0-121.173334-85.333334H360.106667a128 128 0 0 0-121.173334 85.333334L180.906667 388.693333A128 128 0 0 0 85.333333 512v170.666667a128 128 0 0 0 85.333334 120.32V853.333333a42.666667 42.666667 0 0 0 85.333333 0v-42.666666h512v42.666666a42.666667 42.666667 0 0 0 85.333333 0v-50.346666A128 128 0 0 0 938.666667 682.666667v-170.666667a128 128 0 0 0-95.573334-123.306667zM319.573333 242.346667A42.666667 42.666667 0 0 1 360.106667 213.333333h303.786666a42.666667 42.666667 0 0 1 42.666667 29.013334L751.36 384H272.64zM853.333333 682.666667a42.666667 42.666667 0 0 1-42.666666 42.666666H213.333333a42.666667 42.666667 0 0 1-42.666666-42.666666v-170.666667a42.666667 42.666667 0 0 1 42.666666-42.666667h597.333334a42.666667 42.666667 0 0 1 42.666666 42.666667z m-144.213333-124.586667a38.4 38.4 0 0 0-23.04 23.04 42.666667 42.666667 0 0 0 55.466667 55.466667 38.4 38.4 0 0 0 23.04-23.04A35.84 35.84 0 0 0 768 597.333333a44.8 44.8 0 0 0-12.373333-30.293333 42.666667 42.666667 0 0 0-46.506667-8.96zM554.666667 554.666667h-85.333334a42.666667 42.666667 0 0 0 0 85.333333h85.333334a42.666667 42.666667 0 0 0 0-85.333333z"  /></svg>