<svg class="svg-icon" style="width: 0.8em; height: 0.8em;vertical-align: middle;fill: currentColor;overflow: hidden;" viewBox="0 0 1024 1024" version="1.1" xmlns="http://www.w3.org/2000/svg"><path d="M824.811402 436.138218l-91.26254 0c0-101.115955-95.511307-183.376471-212.94388-183.376471-117.408013 0-212.94695 82.260515-212.94695 183.376471l-91.258447 0c-33.601282 0-60.842717 27.333532-60.842717 61.117986l0 366.747825 730.09725 0L885.654119 497.260298C885.650025 463.47482 858.408591 436.138218 824.811402 436.138218M672.706145 711.195761l-91.261517 0 0 91.685165L459.762265 802.880927l0-91.685165-91.261517 0L368.500748 588.95058l91.261517 0 0-91.690282 121.682363 0L581.444629 588.946486l91.261517 0L672.706145 711.195761 672.706145 711.195761 672.706145 711.195761zM368.500748 436.138218c0-67.426669 68.209498-122.249275 152.104233-122.249275 83.864036 0 152.101163 54.822606 152.101163 122.249275L368.500748 436.138218 368.500748 436.138218zM368.500748 436.138218"  /></svg>