<svg class="svg-icon" style="width: 0.8em; height: 0.8em;vertical-align: middle;fill: currentColor;overflow: hidden;" viewBox="0 0 1024 1024" version="1.1" xmlns="http://www.w3.org/2000/svg"><path d="M902.5 68.6C801.7 4.7 656.9 23.3 558 69.9c-16.3 7.7-23.3 27.2-15.6 43.4 7.7 16.3 27.1 23.3 43.4 15.6 82.7-39.1 201.9-55.8 281.7-5.2 60.5 38.3 91.1 111.2 91.1 216.5 0 175.3-246.9 404.2-459.7 547.9-21-14.2-60.6-41.8-107.7-78.4-14.2-11.1-34.7-8.5-45.8 5.7-11.1 14.2-8.5 34.7 5.7 45.8 51 39.7 93.5 69.1 114.3 83.1 10.2 6.8 21.8 10.2 33.4 10.2 11.6 0 23.3-3.4 33.4-10.2C647.7 866.7 1024 594 1024 340.2c0-160.9-66.1-236.5-121.5-271.6z"  /><path d="M717.8 578.7c6.3 5.9 14.3 8.9 22.4 8.9 8.7 0 17.4-3.4 23.8-10.3 65.8-69.9 99.1-134.8 99.1-192.7 0-90.3-37.2-134.3-68.5-155.3-57.8-38.8-135.7-29.3-189.4-7.5-16.7 6.8-24.7 25.8-17.9 42.5 6.7 16.7 25.7 24.7 42.4 18 36.4-14.8 91.8-23.4 128.4 1.2 26.3 17.7 39.7 51.8 39.7 101.2 0 40.2-28.1 91.4-81.4 148-12.4 13-11.8 33.7 1.4 46zM598.4 723.6c0 18 14.6 32.6 32.6 32.6s32.6-14.6 32.6-32.6c0-130.3-98.4-240.9-233.5-277.7 63.4-34.9 106.4-102.2 106.4-179.5 0-112.9-91.9-204.8-204.8-204.8s-204.8 91.9-204.8 204.8c0 77.3 43.1 144.7 106.4 179.5C98.4 482.7 0 593.3 0 723.6c0 18 14.6 32.6 32.6 32.6s32.6-14.6 32.6-32.6c0-124.3 119.6-225.5 266.6-225.5s266.6 101.2 266.6 225.5zM192.3 266.4c0-76.9 62.6-139.5 139.5-139.5s139.5 62.6 139.5 139.5-62.6 139.5-139.5 139.5-139.5-62.6-139.5-139.5z"  /></svg>