<svg class="svg-icon" style="width: 1em;height: 1em;vertical-align: middle;fill: currentColor;overflow: hidden;" viewBox="0 0 1024 1024" version="1.1" xmlns="http://www.w3.org/2000/svg"><path d="M893.19 197.4c-46.57-46.13-106.93-69.42-167.73-69.42-60.79 0-121.58 23.28-167.72 69.42l-30.62 30.61c-3.88 4.31-9.48 6.47-15.09 6.47-5.61 0-11.21-2.16-15.09-6.47l-30.62-30.61c-46.13-46.13-106.93-69.42-167.72-69.42-60.79 0-121.16 23.28-167.73 69.42-46.56 46.13-69.41 106.93-69.41 167.72 0 59.07 21.56 118.14 65.97 163.84 0.86 1.29 2.15 2.59 3.44 3.88l18.55 18.54 331.99 331.99c8.62 8.62 19.4 12.5 30.61 12.5s21.99-3.88 30.61-12.5l331.99-331.99 18.55-18.54c1.29-1.29 2.58-2.59 3.44-3.88 89.27-92.7 87.98-240.16-3.42-331.56z m-701.06 61.22c28.45-28.46 66.39-44.41 106.49-44.41 40.53 0 78.04 15.95 106.93 44.41l30.18 30.18c20.26 20.69 47.43 31.91 76.32 31.91 28.88 0 56.05-11.21 76.32-31.91l30.18-30.18c28.89-28.46 66.4-44.41 106.93-44.41 40.1 0 78.04 15.95 106.49 44.41 58.21 57.78 59.07 151.34 2.59 210.4H702.18L672 438.41c-10.78-10.35-25.87-14.66-40.53-11.64-14.66 3.45-26.31 14.23-31.04 28.46l-18.11 54.33-122.88-153.93c-10.35-12.5-26.74-18.54-42.68-15.09-15.96 3.45-28.89 15.95-32.77 31.91l-30.18 120.29-37.95-19.4c-6.03-3.02-12.51-4.31-19.4-4.31H189.54c-56.49-59.07-55.62-152.63 2.59-210.41z m319.91 533.34l-236.7-236.7h10.78l77.18 38.37c11.64 6.04 25.44 6.04 37.51 0.86 11.64-5.61 20.7-15.95 23.72-28.89l21.99-87.96L564.64 625.1c8.19 10.35 20.69 16.38 33.63 16.38 2.59 0 5.17-0.43 7.76-0.86 15.53-2.59 28.03-13.8 33.2-28.89l21.13-63.81c7.33 4.74 15.53 7.33 24.15 7.33h64.24L512.04 791.96z" fill="#1A1A1A" /></svg>