<svg class="svg-icon" style="width: 1.5em;height: 1.5em;vertical-align: middle;fill: currentColor;overflow: hidden;" viewBox="0 0 1027 1024" version="1.1" xmlns="http://www.w3.org/2000/svg"><path d="M1006.251212 22.583152A96.136017 96.136017 0 0 0 938.956 0.151414a178.652766 178.652766 0 0 0-126.57909 56.079344L600.877672 267.729996c-118.567755-8.011335-422.998477-27.238538-431.009811-27.238538h-4.806801a71.461106 71.461106 0 0 0-48.068009 19.227203c-24.034004 19.227203-73.70428 65.692945-73.70428 65.692946a51.913449 51.913449 0 0 0-16.02267 40.056674 38.614634 38.614634 0 0 0 25.636272 32.045339c12.818136 4.806801 211.499238 80.113348 304.430722 113.760954L230.754005 641.058197h-20.829471c-38.454407 0-97.738284-1.602267-121.772288-1.602267H80.140911c-8.011335 0-22.431737-3.204534-62.488411 30.443072l-3.204534 3.204534a46.786195 46.786195 0 0 0-14.420403 32.045339 35.730553 35.730553 0 0 0 12.818136 28.840806c6.409068 6.409068 97.738284 62.488411 171.442564 107.351886 17.624937 28.840805 99.340551 158.624429 102.545085 165.033496a35.089646 35.089646 0 0 0 28.840806 17.624937h1.602267a53.035036 53.035036 0 0 0 35.249873-17.624937c33.647606-38.454407 28.840805-56.079344 28.840805-62.488411v-147.40856l131.38589-124.976823c33.647606 91.329217 105.749619 290.010319 112.158687 301.226188a35.89078 35.89078 0 0 0 32.04534 25.636272h4.8068a58.642971 58.642971 0 0 0 36.85214-16.02267s46.465742-49.670276 65.692946-73.70428a80.113348 80.113348 0 0 0 19.227203-54.477076c0-6.409068-19.227203-309.237523-25.636271-427.805278l211.499238-211.499238c76.908814-73.70428 64.090678-165.033497 36.85214-192.272035zM88.152246 701.944342c-1.602267-1.602267-1.602267 0 0 0z m837.985618-531.95263L714.638626 381.49095l-20.82947 20.829471 1.602267 28.840805c3.204534 59.283877 9.613602 168.238031 16.022669 259.567247 4.806801 81.715615 9.613602 160.226696 9.613602 166.635763s0 4.806801-4.806801 11.215869c-9.613602 11.215869-27.238538 30.443072-41.658941 46.465742-22.431737-62.488411-72.102013-193.874302-97.738284-267.578582l-33.647606-94.53375-70.499747 70.499746-131.38589 124.976822-17.624937 17.624937v165.033496c-1.602267-3.204534-3.204534-4.806801-4.8068-8.011334-25.636271-41.658941-62.488411-100.942818-73.70428-118.567755l-8.011335-12.818136-12.818136-8.011335-131.38589-81.715614h171.442564l17.624937-17.624937 126.579089-129.783624 70.499746-70.499746L384.571633 448.786162c-70.499746-25.636271-206.692438-76.908814-269.180849-100.942818 16.02267-14.420403 35.249873-32.045339 46.465742-41.658941a10.414735 10.414735 0 0 1 8.011335-3.204534h1.602267c6.409068 0 94.53375 6.409068 179.453899 11.215869 89.72695 6.409068 192.272035 12.818136 249.953645 16.022669l28.840805 1.602267 20.829471-20.82947L862.047186 99.491966a113.760954 113.760954 0 0 1 80.113348-36.85214 49.510049 49.510049 0 0 1 20.82947 3.204533 117.446168 117.446168 0 0 1-36.85214 104.147353z"  /></svg>