<svg class="svg-icon" style="width: 1em; height: 1em;vertical-align: middle;fill: currentColor;overflow: hidden;" viewBox="0 0 1024 1024" version="1.1" xmlns="http://www.w3.org/2000/svg"><path d="M732.4 915c-41.7 0-50.1-26.1-50.1-26.1L529.8 599 415.4 712.5l0 138.7-76.3 63L301 725l-190.7-75.6 63.6-63L301 586.4l101.7-100.8L123 321.6c0 0-38.4-20.2-12.7-63 7.4-12.4 27-15.5 44.5-15.5 16.9 0 31.8 2.9 31.8 2.9l368.7 75.6 178-176.5c0 0 29.1-36.1 74.3-36.1 22.6 0 49.2 9 78.2 36.1 82.8 77.4 0 138.7 0 138.7l-178 189.1 76.3 390.8c0 0 2 45.7-38.1 50.4C741.1 914.7 736.6 915 732.4 915zM732.4 876c2.7 0 5.7-0.2 8.9-0.6 0.7-0.1 1.2-0.2 1.4-0.2 0 0 0 0 0 0 1-1.5 2-5.2 2.3-8.1l-75.5-386.8c-2.4-12.3 1.3-25 9.9-34.2l178-189.1c1.6-1.7 3.3-3.3 5.2-4.6 0.2-0.1 19.8-16.2 20.9-35.3 0.8-13.1-7.5-27.7-24.4-43.5-18.2-17-35.6-25.7-51.6-25.7-25.3 0-44 21.6-44 21.6-0.9 1.1-1.9 2.2-2.9 3.2l-178 176.5c-7.4 7.3-17.3 11.3-27.5 11.3-2.6 0-5.2-0.3-7.8-0.8l-368.2-75.5c-0.1 0-11.8-2.2-24.6-2.2-6.6 0-10.9 0.6-13.4 1.1-0.7 1.7-0.9 2.6-1 2.6 0.3 0.4 0.9 1.1 1.5 1.5 0.3 0.1-0.2-0.1 0.8 0.6l279.7 163.9c10.5 6.1 17.5 16.7 19 28.8 1.5 12-2.6 24-11.2 32.6L328.4 614.1c-7.3 7.2-17.2 11.3-27.4 11.3L189.9 625.4l-9.8 9.7 135.3 53.7c12.3 4.9 21.3 15.6 23.9 28.6l25.2 125.3 11.9-9.9L376.4 712.5c0-10.4 4.2-20.4 11.5-27.7l114.4-113.5c7.3-7.3 17.2-11.3 27.4-11.3 2 0 3.9 0.1 6 0.4 12.2 1.9 22.8 9.5 28.6 20.4l152.5 290c0.4 0.8 0.8 1.5 1.1 2.3C719.4 874.1 723.7 876 732.4 876L732.4 876"  /></svg>