<svg class="svg-icon" style="width: 2em; height: 2em;vertical-align: middle;fill: currentColor;overflow: hidden;" viewBox="0 0 1024 1024" version="1.1" xmlns="http://www.w3.org/2000/svg"><path d="M512 957.138196c-245.456365 0-445.149453-199.687972-445.149453-445.13308 0-245.455341 199.693088-445.143313 445.149453-445.143313 245.454318 0 445.149453 199.687972 445.149453 445.143313C957.149453 757.449201 757.454318 957.138196 512 957.138196L512 957.138196zM512 111.248733c-220.97888 0-400.763546 179.77341-400.763546 400.756383 0 220.966601 179.784666 400.74615 400.763546 400.74615 220.976834 0 400.7615-179.779549 400.7615-400.74615C912.7615 291.022143 732.976834 111.248733 512 111.248733L512 111.248733z"  /><path d="M512 957.138196c-148.307767 0-264.48065-195.526185-264.48065-445.13308 0-249.612011 116.172883-445.143313 264.48065-445.143313 148.306744 0 264.479627 195.537442 264.479627 445.143313S660.305721 957.138196 512 957.138196L512 957.138196zM512 111.248733c-119.300107 0-220.09372 183.523827-220.09372 400.756383 0 217.2213 100.793614 400.74615 220.09372 400.74615s220.086557-183.523827 220.086557-400.74615C732.086557 294.77256 631.300107 111.248733 512 111.248733L512 111.248733z"  /><path d="M489.802442 89.052199 534.189372 89.052199 534.189372 934.947801 489.802442 934.947801 489.802442 89.052199Z"  /><path d="M130.284275 309.034379 893.715725 309.034379 893.715725 353.421308 130.284275 353.421308 130.284275 309.034379Z"  /><path d="M83.20298 489.809605 940.789856 489.809605 940.789856 534.196535 83.20298 534.196535 83.20298 489.809605Z"  /><path d="M124.33068 670.573575 899.66932 670.573575 899.66932 714.960505 124.33068 714.960505 124.33068 670.573575Z"  /></svg>